<svg width="41" height="36" viewBox="0 0 41 36" fill="none" xmlns="http://www.w3.org/2000/svg">
<path d="M2.82334e-09 3.3609V12.75C-3.78719e-05 14.5498 0.380988 16.3293 1.11801 17.9713C1.85504 19.6133 2.93136 21.0807 4.27618 22.2769C5.62101 23.4731 7.20385 24.371 8.92059 24.9116C10.6373 25.4522 12.4491 25.6232 14.2367 25.4133C14.7246 26.3806 15.311 27.2765 15.9961 28.101L10.5468 33.5504C10.3145 33.7908 10.186 34.1129 10.1889 34.4472C10.1918 34.7815 10.3259 35.1013 10.5623 35.3377C10.7987 35.5741 11.1185 35.7082 11.4528 35.7111C11.7871 35.714 12.1092 35.5855 12.3496 35.3532L17.799 29.9039C19.8472 31.6098 22.3391 32.6968 24.9829 33.0374C27.6266 33.378 30.3127 32.9582 32.7264 31.8271C35.1401 30.6959 37.1815 28.9004 38.6114 26.6508C40.0413 24.4011 40.8005 21.7906 40.8 19.125V8.6955C40.8 6.7065 39.1935 5.1 37.2045 5.1H26.775C25.5637 5.1 24.3882 5.253 23.2687 5.54115C22.0975 3.83251 20.5276 2.43498 18.6948 1.46949C16.862 0.503997 14.8215 -0.00037916 12.75 2.13856e-07H3.3609C1.5045 2.13856e-07 2.82334e-09 1.5045 2.82334e-09 3.3609ZM19.612 28.0908L27.6777 20.0277C27.9171 19.7886 28.0517 19.4642 28.052 19.1259C28.0522 18.7876 27.918 18.463 27.679 18.2236C27.4399 17.9842 27.1155 17.8495 26.7772 17.8493C26.4388 17.8491 26.1143 17.9832 25.8749 18.2223L17.8092 26.2905C16.4595 24.6023 15.614 22.5671 15.3702 20.4195C15.1264 18.2718 15.4941 16.099 16.431 14.1511C17.3679 12.2033 18.8358 10.5597 20.6659 9.40949C22.4959 8.25934 24.6136 7.64943 26.775 7.65H37.2045C37.3418 7.65 37.4777 7.67704 37.6046 7.72958C37.7314 7.78213 37.8467 7.85914 37.9438 7.95622C38.0409 8.0533 38.1179 8.16856 38.1704 8.2954C38.223 8.42225 38.25 8.5582 38.25 8.6955V19.125C38.2502 21.286 37.6402 23.4031 36.4901 25.2327C35.3401 27.0623 33.6968 28.5299 31.7494 29.4667C29.802 30.4035 27.6297 30.7714 25.4824 30.528C23.3352 30.2845 21.3003 29.4397 19.612 28.0908ZM12.75 2.55C16.0038 2.55 18.9032 4.0749 20.7698 6.4464C18.0336 7.74645 15.7898 9.89453 14.3718 12.5715L9.8277 8.0223C9.70916 7.90376 9.56842 7.80972 9.41354 7.74556C9.25865 7.68141 9.09265 7.64839 8.925 7.64839C8.75735 7.64839 8.59135 7.68141 8.43646 7.74556C8.28158 7.80972 8.14084 7.90376 8.0223 8.0223C7.90376 8.14084 7.80972 8.28158 7.74556 8.43646C7.68141 8.59135 7.64839 8.75735 7.64839 8.925C7.64839 9.09265 7.68141 9.25865 7.74556 9.41354C7.80972 9.56842 7.90376 9.70916 8.0223 9.8277L13.3263 15.1317C12.9427 16.4281 12.7486 17.7731 12.75 19.125C12.75 20.4459 12.9336 21.726 13.2753 22.9373C11.8934 23.0085 10.5114 22.7978 9.21342 22.318C7.91547 21.8383 6.72873 21.0994 5.7254 20.1464C4.72208 19.1934 3.92315 18.0462 3.37725 16.7747C2.83135 15.5031 2.54989 14.1338 2.55 12.75V3.3609C2.55 2.9121 2.9121 2.55 3.3609 2.55H12.75Z" fill="#044D5E"/>
</svg>
