<svg width="41" height="45" viewBox="0 0 41 45" fill="none" xmlns="http://www.w3.org/2000/svg">
<path d="M20.0962 43.5V15.875M26.4712 32.875H28.5962C31.2309 32.8771 33.7724 31.9002 35.7274 30.134C37.6825 28.3678 38.9115 25.9381 39.176 23.3167C39.4406 20.6953 38.7217 18.0692 37.1589 15.9479C35.5962 13.8267 33.3011 12.3618 30.7191 11.8375C30.7191 5.96825 26.4712 1 20.0962 1C13.7212 1 9.4733 5.96825 9.4733 11.8375C6.89935 12.3707 4.61426 13.8387 3.0593 15.958C1.50434 18.0773 0.789823 20.6977 1.05373 23.313C1.31764 25.9283 2.54125 28.353 4.48827 30.119C6.43529 31.8849 8.9676 32.8668 11.5962 32.875H13.7212M20.0962 28.625L25.4087 23.3125M20.0962 24.375L14.7837 19.0625M15.8462 43.5H24.3462" stroke="#044D5E" stroke-width="2" stroke-linecap="round" stroke-linejoin="round"/>
</svg>
