<svg width="24" height="25" viewBox="0 0 24 25" fill="none" xmlns="http://www.w3.org/2000/svg">
<path d="M16 2.5498V6.5498M8 2.5498V6.5498M21 12.5498C21 8.7788 21 6.8928 19.828 5.7218C18.656 4.5508 16.771 4.5498 13 4.5498H11C7.229 4.5498 5.343 4.5498 4.172 5.7218C3.001 6.8938 3 8.7788 3 12.5498V14.5498C3 18.3208 3 20.2068 4.172 21.3778C5.344 22.5488 7.229 22.5498 11 22.5498M3 10.5498H21" stroke="#9810FA" stroke-width="1.5" stroke-linecap="round" stroke-linejoin="round"/>
<path d="M18.267 19.2508L17 18.5498V16.8168M21 18.5498C21 19.6107 20.5786 20.6281 19.8284 21.3782C19.0783 22.1284 18.0609 22.5498 17 22.5498C15.9391 22.5498 14.9217 22.1284 14.1716 21.3782C13.4214 20.6281 13 19.6107 13 18.5498C13 17.4889 13.4214 16.4715 14.1716 15.7214C14.9217 14.9712 15.9391 14.5498 17 14.5498C18.0609 14.5498 19.0783 14.9712 19.8284 15.7214C20.5786 16.4715 21 17.4889 21 18.5498Z" stroke="#9810FA" stroke-width="1.5" stroke-linecap="round" stroke-linejoin="round"/>
</svg>
