<svg width="17" height="17" viewBox="0 0 17 17" fill="none" xmlns="http://www.w3.org/2000/svg">
<path d="M10.6135 1.41504H6.3682C5.97743 1.41504 5.66064 1.73182 5.66064 2.1226V3.53771C5.66064 3.92848 5.97743 4.24527 6.3682 4.24527H10.6135C11.0043 4.24527 11.3211 3.92848 11.3211 3.53771V2.1226C11.3211 1.73182 11.0043 1.41504 10.6135 1.41504Z" stroke="black" stroke-width="1.41511" stroke-linecap="round" stroke-linejoin="round"/>
<path d="M11.3208 2.83057H12.7359C13.1112 2.83057 13.4711 2.97966 13.7365 3.24504C14.0019 3.51043 14.151 3.87037 14.151 4.24568V14.1515C14.151 14.5268 14.0019 14.8867 13.7365 15.1521C13.4711 15.4175 13.1112 15.5666 12.7359 15.5666H4.24519C3.86988 15.5666 3.50994 15.4175 3.24456 15.1521C2.97917 14.8867 2.83008 14.5268 2.83008 14.1515V4.24568C2.83008 3.87037 2.97917 3.51043 3.24456 3.24504C3.50994 2.97966 3.86988 2.83057 4.24519 2.83057H5.66031" stroke="black" stroke-width="1.41511" stroke-linecap="round" stroke-linejoin="round"/>
<path d="M6.36816 9.90584L7.78328 11.321L10.6135 8.49072" stroke="black" stroke-width="1.41511" stroke-linecap="round" stroke-linejoin="round"/>
</svg>
