<svg width="31" height="31" viewBox="0 0 31 31" fill="none" xmlns="http://www.w3.org/2000/svg">
<path d="M16.7624 3.99114H3.99077C3.14396 3.99114 2.33182 4.32753 1.73304 4.92632C1.13425 5.52511 0.797852 6.33724 0.797852 7.18405V23.1486M0.797852 23.1486V26.3416C0.797852 27.1884 1.13425 28.0005 1.73304 28.5993C2.33182 29.1981 3.14396 29.5345 3.99077 29.5345H23.1483C23.9951 29.5345 24.8072 29.1981 25.406 28.5993C26.0048 28.0005 26.3412 27.1884 26.3412 26.3416V19.9557M0.797852 23.1486L8.11921 15.8273C8.71797 15.2287 9.52996 14.8924 10.3766 14.8924C11.2233 14.8924 12.0352 15.2287 12.634 15.8273L16.7624 19.9557M26.3412 13.5699V19.9557M26.3412 19.9557L23.8092 17.4237C23.2105 16.8252 22.3985 16.4889 21.5518 16.4889C20.7052 16.4889 19.8932 16.8252 19.2944 17.4237L16.7624 19.9557M16.7624 19.9557L19.9554 23.1486M23.1483 3.99114H29.5341M26.3412 0.798218V7.18405M16.7624 10.377H16.7784" stroke="#9CA3AF" stroke-width="1.59646" stroke-linecap="round" stroke-linejoin="round"/>
</svg>
